<?xml version="1.0" standalone="no"?>
<!DOCTYPE svg PUBLIC "-//W3C//DTD SVG 20010904//EN" "http://www.w3.org/TR/2001/REC-SVG-20010904/DTD/svg10.dtd">
<!-- Created using Karbon, part of Calligra: http://www.calligra.org/karbon -->
<svg xmlns="http://www.w3.org/2000/svg" xmlns:xlink="http://www.w3.org/1999/xlink" width="611.721pt" height="272.912pt">
<defs/>
<g id="layer1">
  <path id="path3918" transform="translate(3.71304e-06, 141.568)" fill="#000000" d="M213.222 27.1191C213.098 27.5143 210.835 27.2154 206.673 26.3552C202.511 25.4949 196.45 24.0728 188.704 22.3303C180.959 20.5878 171.529 18.5238 160.627 16.5022C149.725 14.4806 137.349 12.5014 123.72 11.0607C114.132 10.0518 103.923 9.27409 93.2589 9.10494C82.5947 8.93579 71.4755 9.37638 60.1067 10.9231C53.5658 11.8436 46.9266 13.024 40.4976 14.8403C34.0685 16.6565 27.8503 19.1095 22.2005 22.6417C18.6385 24.8806 15.3759 27.4097 13.1196 30.4994C11.4692 32.7821 10.241 35.3149 10.0394 37.7708C10.0334 37.8442 10.0283 37.9175 10.0241 37.9907C9.76572 40.4048 10.5097 43.059 11.7837 45.4284C13.4316 48.5211 16.205 51.1931 19.3135 53.6108C23.5709 56.8676 28.5076 59.3338 33.6286 61.42C40.5291 64.2125 47.7117 66.1356 54.8815 67.6072C66.0696 69.9038 77.0994 71.0508 87.731 71.5595C98.3625 72.0683 108.595 71.94 118.238 71.5585L118.238 71.5585C132.179 70.9986 144.89 69.8214 156.113 68.5119C167.336 67.2024 177.071 65.7605 185.074 64.5337C193.076 63.307 199.348 62.294 203.645 61.7168C207.943 61.1397 210.269 60.9978 210.365 61.4051C210.462 61.8124 208.323 62.7457 204.183 64.0845C200.043 65.4234 193.901 67.1683 185.973 69.0872C178.045 71.0061 168.329 73.1003 157.042 75.0086C145.755 76.917 132.895 78.6394 118.698 79.6743L118.698 79.6743C108.893 80.3948 98.4073 80.811 87.3998 80.52C76.3923 80.229 64.863 79.2294 53.0334 76.9942C45.4341 75.558 37.6627 73.5539 29.9952 70.5462C24.3107 68.3303 18.5948 65.4756 13.327 61.5475C9.42666 58.6785 5.73905 54.9878 3.05282 50.2796C0.879266 46.444 -0.282994 41.8971 0.0590863 37.1548C0.0727863 37.0146 0.0877863 36.8747 0.103986 36.7352C0.644936 32.0681 2.52725 27.8859 5.13222 24.5017C8.51176 20.0862 12.7059 16.739 17.0134 14.1634C23.7032 10.1462 30.7645 7.37883 37.8507 5.40408C44.9369 3.42933 52.0476 2.24634 58.897 1.45585C70.8814 0.0185758 82.4786 -0.235924 93.5002 0.181196C104.522 0.598316 114.968 1.6857 124.704 3.04878C138.56 4.98173 151.051 7.5148 161.981 10.1366C172.911 12.7585 182.281 15.469 189.907 17.8923C197.534 20.3157 203.418 22.4531 207.371 24.0551C211.324 25.6571 213.274 27.5304 213.222 27.1194Z"/>
  <path id="path3926" transform="translate(2.1108, 174.828)" fill="#000000" d="M9.82954 12.8643L0 14.7028C4.17619 36.4133 9.90703 58.005 18.5059 78.5854C25.1957 94.6213 33.7793 110.092 45.0732 123.584C45.0732 123.584 45.0732 123.584 45.0732 123.584C54.5356 134.877 65.9906 144.582 79.0033 151.65C79.0033 151.65 79.0034 151.65 79.0034 151.65C91.4879 158.405 105.168 162.639 119.071 164.679C134.021 166.871 149.151 166.694 163.993 165.112C180.606 163.347 196.937 159.888 212.94 155.552C212.94 155.552 212.94 155.552 212.941 155.552C249.86 145.551 285.296 131.168 320.203 116.102C358.73 99.4809 396.687 81.7101 435.069 64.9781C473.14 48.384 511.618 32.636 551.303 20.5557C551.303 20.5557 551.303 20.5557 551.303 20.5557C569.921 14.8881 588.801 10.0502 607.946 6.59489C607.946 6.59488 607.946 6.59488 607.946 6.59488C625.968 3.34261 644.236 1.3147 662.549 1.19239C662.549 1.19238 662.549 1.19238 662.549 1.19238C679.942 1.07639 697.384 2.70513 714.337 6.64837C731.161 10.5612 747.47 16.7927 762.54 25.288C747.568 16.6213 731.305 10.1893 714.474 6.07207C697.515 1.92367 680.02 0.0842837 662.548 0.00290374C662.548 0.00290374 662.548 0.00290374 662.548 0.00290374C644.152 -0.0829963 625.773 1.74202 607.633 4.80388C607.633 4.80389 607.633 4.80389 607.633 4.80389C588.363 8.05604 569.345 12.6968 550.593 18.1735C550.593 18.1735 550.593 18.1735 550.593 18.1735C510.626 29.8467 471.838 45.1999 433.527 61.3858C394.893 77.706 356.728 95.0454 318.114 111.183C283.104 125.809 247.756 139.701 211.241 149.128C211.241 149.128 211.241 149.128 211.241 149.128C195.425 153.211 179.411 156.421 163.274 157.939C148.862 159.29 134.349 159.312 120.237 157.056C107.149 154.965 94.3888 150.871 82.9413 144.48C82.9413 144.48 82.9413 144.48 82.9412 144.48C70.9949 137.839 60.4628 128.675 51.7439 118.051C51.7439 118.051 51.7439 118.051 51.7439 118.051C41.2846 105.321 33.3447 90.5302 27.0595 75.0625C18.994 55.1816 13.6984 34.1665 9.82954 12.8643Z"/>
  <path id="path3930" transform="translate(191.893, 186.071)" fill="#000000" d="M36.3839 3.08174C36.0041 -2.15039 26.2415 -0.0541196 26.4733 4.41572C27.5637 25.4512 28.8826 47.0001 23.7394 67.9719L23.7394 67.9719C21.403 77.4639 18.2517 86.7846 13.8746 95.5679L13.8746 95.5679C10.285 102.753 5.94323 109.672 0 115.177C6.3823 110.188 11.4204 103.538 15.6534 96.5497L15.6534 96.5497C20.841 88.004 24.8791 78.7467 28.0754 69.2342L28.0754 69.2342C35.1458 48.2528 38.4649 31.7483 36.3839 3.08174Z"/>
  <path id="path3934" transform="translate(81.3707, 2.28169e-07)" fill="#000000" d="M31.8517 182.973C31.5332 183.397 29.7601 182.751 26.8243 180.988C25.3564 180.107 23.6011 178.941 21.6284 177.448C19.6557 175.955 17.4648 174.136 15.1635 171.914C11.8281 168.7 8.22386 164.602 5.20109 159.236C3.10432 155.507 1.36978 151.143 0.525044 146.218C0.525044 146.218 0.525044 146.218 0.525044 146.218C-0.163126 142.115 -0.190186 137.734 0.535044 133.317C1.24664 129.142 2.53163 125.007 4.27069 120.987C6.00974 116.967 8.20249 113.062 10.647 109.336C15.3125 102.14 20.8857 95.2922 26.6198 88.5231C26.9363 88.1494 27.2524 87.777 27.5677 87.4058C33.6882 80.1762 39.6026 73.3936 44.5436 66.5826C46.9825 63.1826 49.2193 59.8209 51.0631 56.4772C52.9069 53.1335 54.3574 49.8076 55.3076 46.4888C56.2992 43.0971 56.7897 39.7302 56.7358 36.5515C56.6905 32.838 55.9133 29.2829 54.7661 26.0937C53.1386 21.546 50.7425 17.6753 48.4515 14.4252C46.8652 12.1794 45.3079 10.2363 43.9087 8.55436C42.5094 6.87241 41.2673 5.45194 40.2669 4.27367C38.2661 1.91714 37.2476 0.514019 37.566 0.11554C37.8844 -0.28294 39.5164 0.345441 42.1933 2.06071C43.5317 2.91834 45.1277 4.05282 46.9113 5.50916C48.6948 6.96549 50.6669 8.74337 52.7159 10.9193C55.6888 14.0719 58.8486 18.1065 61.3211 23.3483C63.0638 27.0592 64.3693 31.3669 64.7733 36.1252C65.1035 40.1897 64.7663 44.4648 63.7431 48.7131C62.7413 52.7972 61.2114 56.8289 59.2709 60.7517C57.3303 64.6745 54.9796 68.4881 52.4199 72.1543C47.296 79.5711 41.2731 86.6938 35.1988 93.867C34.8852 94.2387 34.5713 94.6105 34.2572 94.9824C28.5681 101.72 23.1745 108.162 18.7541 114.7C16.4801 118.106 14.4283 121.5 12.7958 124.874C11.1633 128.248 9.95044 131.604 9.27291 134.934C8.53901 138.401 8.35384 141.845 8.6951 145.07C8.6951 145.07 8.6951 145.07 8.6951 145.07C9.08772 148.952 10.2473 152.621 11.7273 155.91C13.8716 160.682 16.7181 164.691 19.3868 168.067C21.2342 170.399 23.0174 172.417 24.6114 174.166C26.2053 175.915 27.6109 177.393 28.7438 178.621C31.0097 181.078 32.1701 182.548 31.8517 182.973Z"/>
  <text id="shape0" fill="#000000" font-family="GentiumAlt" font-size="115.00000000000pt" x="0.00000000000pt" y="72.43750000000pt" transform="matrix(1.695 0 0 1.59463 253.473 90.9395)"><tspan>Pype</tspan></text>
 </g>
</svg>
