<?xml version="1.0" encoding="UTF-8" standalone="no"?>
<!-- Created using Karbon, part of Calligra: http://www.calligra.org/karbon -->

<svg
   xmlns:dc="http://purl.org/dc/elements/1.1/"
   xmlns:cc="http://creativecommons.org/ns#"
   xmlns:rdf="http://www.w3.org/1999/02/22-rdf-syntax-ns#"
   xmlns:svg="http://www.w3.org/2000/svg"
   xmlns="http://www.w3.org/2000/svg"
   xmlns:sodipodi="http://sodipodi.sourceforge.net/DTD/sodipodi-0.dtd"
   xmlns:inkscape="http://www.inkscape.org/namespaces/inkscape"
   width="400pt"
   height="400pt"
   id="svg2"
   version="1.1"
   inkscape:version="0.91 r13725"
   sodipodi:docname="pype_ico.svg"
   inkscape:export-filename="/home/jacmoe/webdev/vhosts/pype/pypeico.png"
   inkscape:export-xdpi="38.586746"
   inkscape:export-ydpi="38.586746">
  <metadata
     id="metadata16">
    <rdf:RDF>
      <cc:Work
         rdf:about="">
        <dc:format>image/svg+xml</dc:format>
        <dc:type
           rdf:resource="http://purl.org/dc/dcmitype/StillImage" />
        <dc:title></dc:title>
      </cc:Work>
    </rdf:RDF>
  </metadata>
  <sodipodi:namedview
     pagecolor="#ffffff"
     bordercolor="#666666"
     borderopacity="1"
     objecttolerance="10"
     gridtolerance="10"
     guidetolerance="10"
     inkscape:pageopacity="0"
     inkscape:pageshadow="2"
     inkscape:window-width="1555"
     inkscape:window-height="823"
     id="namedview14"
     showgrid="false"
     fit-margin-top="0"
     fit-margin-left="0"
     fit-margin-right="0"
     fit-margin-bottom="0"
     inkscape:zoom="0.22166981"
     inkscape:cx="109.46203"
     inkscape:cy="236.53591"
     inkscape:window-x="159"
     inkscape:window-y="93"
     inkscape:window-maximized="0"
     inkscape:current-layer="layer1" />
  <defs
     id="defs4" />
  <g
     id="layer1"
     transform="translate(-3.6396182e-6,158.85962)">
    <path
       id="path3918"
       d="m 296.48472,71.058354 c -0.15142,0.478261 -2.9151,0.11658 -7.99789,-0.92444 -5.0828,-1.04111 -12.48473,-2.762077 -21.94444,-4.870784 -9.4585,-2.108723 -20.97479,-4.6065 -34.28873,-7.052968 -13.31394,-2.446467 -28.42799,-4.841624 -45.07227,-6.585109 -11.70923,-1.220939 -24.17686,-2.162099 -37.20028,-2.366794 -13.02353,-0.204695 -26.60273,0.328492 -40.48675,2.200275 -7.988,1.11395 -16.096052,2.542432 -23.947397,4.74045 -7.851467,2.197899 -15.445375,5.166441 -22.345132,9.440981 -4.350053,2.709438 -8.334466,5.770064 -11.089947,9.509115 -2.015534,2.762445 -3.515459,5.827543 -3.761661,8.799597 -0.0073,0.08884 -0.01355,0.177527 -0.01868,0.266113 -0.315544,2.921453 0.593033,6.133471 2.148892,9.000838 2.012479,3.742682 5.399464,6.976232 9.195685,9.902052 5.199302,3.94127 11.228193,6.92578 17.482158,9.45043 8.427159,3.37937 17.198829,5.70665 25.954872,7.48751 13.66334,2.77927 27.13336,4.16733 40.11709,4.78294 12.9836,0.61574 25.47993,0.46048 37.25633,-0.001 l 0,0 c 17.02529,-0.67757 32.54846,-2.10217 46.25442,-3.68689 13.70598,-1.58471 25.59473,-3.32964 35.36831,-4.81428 9.77235,-1.4845 17.43196,-2.71039 22.67963,-3.4089 5.24888,-0.69839 8.08949,-0.87011 8.20672,-0.37721 0.11854,0.4929 -2.49377,1.62235 -7.5497,3.24251 -5.05592,1.62029 -12.55678,3.73191 -22.23875,6.05409 -9.68199,2.32218 -21.54755,4.85651 -35.33167,7.16587 -13.78413,2.30948 -29.48926,4.39387 -46.82719,5.64627 l 0,0 c -11.97424,0.87192 -24.77979,1.37559 -38.22258,1.02343 -13.44279,-0.35236 -27.52282,-1.56205 -41.96959,-4.267 -9.280561,-1.73804 -18.771297,-4.16333 -28.135148,-7.80314 -6.942132,-2.68161 -13.922611,-6.13626 -20.355854,-10.88992 -4.763247,-3.47196 -9.2667,-7.93832 -12.547228,-13.636011 -2.654429,-4.64171 -4.073826,-10.144199 -3.656064,-15.883169 0.01673,-0.169662 0.03505,-0.33897 0.05483,-0.50779 0.660629,-5.647949 2.959384,-10.709099 6.140675,-14.804548 4.127225,-5.343481 9.249272,-9.394143 14.509759,-12.511037 8.169844,-4.861487 16.793379,-8.210451 25.447323,-10.600221 8.653943,-2.389786 17.337806,-3.821396 25.702564,-4.778021 14.63581,-1.739325 28.79876,-2.047319 42.25877,-1.54254 13.46025,0.504795 26.21731,1.82071 38.10729,3.470252 16.92149,2.339184 32.17599,5.40462 45.52413,8.577429 13.34813,3.172927 24.79115,6.453079 34.10432,9.385672 9.31439,2.932712 16.50015,5.519327 21.32772,7.458004 4.82755,1.938692 7.20897,4.205684 7.14546,3.708313 z"
       inkscape:connector-curvature="0"
       style="fill:#000000" />
    <path
       id="path3926"
       d="m 50.67172,94.057783 -12.004216,2.224891 c 5.100126,26.273276 12.09885,52.402796 22.600125,77.308466 8.169845,19.40608 18.652471,38.12818 32.445021,54.45572 0,0 0,0 0,0 11.55585,13.66639 25.54514,25.41103 41.43676,33.96448 0,0 1.2e-4,0 1.2e-4,0 15.24656,8.17466 31.95323,13.2985 48.93211,15.76724 18.25753,2.65268 36.73487,2.43848 54.8605,0.52401 20.28845,-2.13595 40.23249,-6.32191 59.77597,-11.56919 0,0 0,0 10e-4,0 45.08692,-12.10286 88.36274,-29.50866 130.99253,-47.741 47.05067,-20.11427 93.40524,-41.61985 140.27884,-61.86833 46.49378,-20.0816 93.48461,-39.13927 141.94949,-53.75843 0,0 0,0 0,0 22.73701,-6.858733 45.79401,-12.713384 69.17463,-16.894881 0,-1.5e-5 0,-1.5e-5 0,-1.5e-5 22.00917,-3.935777 44.31876,-6.389874 66.68331,-6.537902 0,0 0,0 0,0 21.241,-0.140339 42.54185,1.83067 63.24551,6.602641 20.54614,4.735167 40.46332,12.276312 58.86739,22.557027 -18.2844,-10.48814 -38.14541,-18.27192 -58.70007,-23.254445 -20.71099,-5.020243 -42.07657,-7.24621 -63.41405,-7.344684 0,0 0,0 0,0 -22.46592,-0.10389 -44.91106,2.104605 -67.06434,5.809966 0,1.5e-5 0,1.5e-5 0,1.5e-5 -23.53328,3.93563 -46.7588,9.551719 -69.65947,16.179428 0,0 0,0 0,0 -48.80925,14.1265 -96.17867,32.7064 -142.96555,52.294 -47.18135,19.75013 -93.78993,40.73366 -140.94685,60.26281 -42.75559,17.69988 -85.92393,34.51149 -130.51748,45.9197 0,0 0,0 0,0 -19.31511,4.9411 -38.87202,8.82573 -58.57917,10.66276 -17.60049,1.63494 -35.32433,1.66156 -52.55846,-1.06857 -15.98357,-2.53045 -31.56682,-7.48488 -45.54695,-15.21903 0,0 0,0 -1.3e-4,0 -14.58928,-8.0367 -27.45149,-19.12665 -38.09935,-31.98344 0,0 0,0 0,0 C 89.085635,205.94562 79.389119,188.04632 71.713389,169.32785 61.863486,145.26868 55.396292,119.83695 50.67149,94.057783 Z"
       inkscape:connector-curvature="0"
       style="fill:#000000" />
    <path
       id="path3930"
       d="m 314.87035,95.825161 c -0.46382,-6.331746 -12.3863,-3.794907 -12.10321,1.614332 1.33163,25.456387 2.94233,51.534107 -3.33875,76.913447 l 0,0 c -2.85331,11.48689 -6.70179,22.76646 -12.04728,33.3957 l 0,0 c -4.38375,8.69516 -9.68609,17.06829 -16.9442,23.73024 7.79431,-6.0375 13.94704,-14.0851 19.11654,-22.54209 l 0,0 c 6.3353,-10.34171 11.26679,-21.54457 15.17024,-33.05626 l 0,0 c 8.63464,-25.39095 12.68806,-45.36411 10.14666,-80.055369 z"
       inkscape:connector-curvature="0"
       style="fill:#000000" />
    <path
       id="path3934"
       d="m 174.36131,88.346645 c -0.38896,0.513117 -2.55434,-0.268652 -6.13965,-2.402167 -1.79266,-1.066152 -3.9363,-2.477206 -6.34544,-4.283984 -2.40914,-1.806779 -5.08475,-4.008073 -7.89519,-6.697057 -4.07332,-3.88947 -8.47495,-8.848723 -12.16648,-15.342472 -2.56066,-4.512704 -4.67894,-9.793852 -5.71057,-15.753912 0,0 0,0 0,0 -0.84042,-4.965318 -0.87346,-10.267037 0.0122,-15.612334 0.86903,-5.052443 2.43831,-10.056468 4.56212,-14.921337 2.12379,-4.8648624 4.80167,-9.5905566 7.787,-14.09962915 5.69769,-8.70834605 12.50389,-16.99531185 19.5066,-25.18703785 0.38652,-0.452238 0.77256,-0.902904 1.15761,-1.352117 7.4746,-8.749007 14.69749,-16.957071 20.73164,-25.199503 2.97848,-4.114559 5.71013,-8.182771 7.96186,-12.229198 2.25171,-4.046427 4.02313,-8.071314 5.18355,-12.087609 1.21098,-4.104516 1.81,-8.17902 1.74418,-12.02577 -0.0554,-4.493946 -1.00448,-8.796203 -2.40548,-12.655658 -1.98757,-5.50347 -4.91378,-10.18765 -7.71164,-14.12081 -1.93725,-2.71779 -3.83908,-5.06926 -5.54784,-7.10468 -1.70888,-2.03544 -3.22577,-3.75444 -4.44751,-5.18034 -2.44345,-2.85179 -3.68728,-4.5498 -3.29844,-5.03203 0.38884,-0.48222 2.3819,0.27822 5.65104,2.35398 1.63451,1.03787 3.5836,2.41078 5.7618,4.17319 2.17808,1.7624 4.58648,3.91393 7.0888,6.54716 3.63063,3.81517 7.4895,8.6977 10.509,15.04114 2.12826,4.4908 3.72259,9.703828 4.21597,15.462154 0.40326,4.918715 -0.009,10.09229 -1.25811,15.233433 -1.22345,4.942434 -3.09182,9.821455 -5.46163,14.568689 -2.36994,4.747235 -5.24071,9.362319 -8.3667,13.799024 -6.25751,8.975551 -13.61292,17.595191 -21.03109,26.275944 -0.38298,0.449818 -0.76633,0.899758 -1.14992,1.349818 -6.94775,8.1536053 -13.53462,15.9494864 -18.93299,23.8615438 -2.77709,4.1218211 -5.28283,8.2291202 -7.2765,12.3122202 -1.99368,4.083097 -3.47487,8.144398 -4.3023,12.174252 -0.89626,4.195649 -1.1224,8.363452 -0.70564,12.266232 0,0 0,0 0,0 0.47948,4.697861 1.89561,9.137946 3.70304,13.118187 2.61871,5.774903 6.09496,10.626459 9.35408,14.711976 2.25612,2.822093 4.43383,5.264207 6.38049,7.380795 1.94653,2.116574 3.6631,3.905201 5.04664,5.39128 2.76721,2.973367 4.18434,4.752314 3.79549,5.266627 z"
       inkscape:connector-curvature="0"
       style="fill:#000000" />
  </g>
</svg>
