<?xml version="1.0" encoding="UTF-8" standalone="no"?>
<!-- Created using Karbon, part of Calligra: http://www.calligra.org/karbon -->

<svg
   xmlns:dc="http://purl.org/dc/elements/1.1/"
   xmlns:cc="http://creativecommons.org/ns#"
   xmlns:rdf="http://www.w3.org/1999/02/22-rdf-syntax-ns#"
   xmlns:svg="http://www.w3.org/2000/svg"
   xmlns="http://www.w3.org/2000/svg"
   xmlns:sodipodi="http://sodipodi.sourceforge.net/DTD/sodipodi-0.dtd"
   xmlns:inkscape="http://www.inkscape.org/namespaces/inkscape"
   width="611.72064pt"
   height="272.91229pt"
   id="svg2"
   version="1.1"
   inkscape:version="0.91 r13725"
   sodipodi:docname="pype_w.svg"
   inkscape:export-filename="/home/jacmoe/webdev/vhosts/pype/pypew.png"
   inkscape:export-xdpi="26.364975"
   inkscape:export-ydpi="26.364975">
  <metadata
     id="metadata16">
    <rdf:RDF>
      <cc:Work
         rdf:about="">
        <dc:format>image/svg+xml</dc:format>
        <dc:type
           rdf:resource="http://purl.org/dc/dcmitype/StillImage" />
        <dc:title></dc:title>
      </cc:Work>
    </rdf:RDF>
  </metadata>
  <sodipodi:namedview
     pagecolor="#505050"
     bordercolor="#666666"
     borderopacity="1"
     objecttolerance="10"
     gridtolerance="10"
     guidetolerance="10"
     inkscape:pageopacity="0"
     inkscape:pageshadow="2"
     inkscape:window-width="1555"
     inkscape:window-height="823"
     id="namedview14"
     showgrid="false"
     fit-margin-top="0"
     fit-margin-left="0"
     fit-margin-right="0"
     fit-margin-bottom="0"
     inkscape:zoom="0.44333962"
     inkscape:cx="284.20649"
     inkscape:cy="55.534327"
     inkscape:window-x="159"
     inkscape:window-y="93"
     inkscape:window-maximized="0"
     inkscape:current-layer="layer1" />
  <defs
     id="defs4" />
  <g
     id="layer1"
     transform="translate(-3.6396182e-6,-4.7070318e-7)">
    <path
       id="path3918"
       transform="translate(3.71304e-6,141.568)"
       d="m 213.222,27.1191 c -0.124,0.3952 -2.387,0.0963 -6.549,-0.7639 -4.162,-0.8603 -10.223,-2.2824 -17.969,-4.0249 -7.745,-1.7425 -17.175,-3.8065 -28.077,-5.8281 C 149.725,14.4806 137.349,12.5014 123.72,11.0607 114.132,10.0518 103.923,9.27409 93.2589,9.10494 82.5947,8.93579 71.4755,9.37638 60.1067,10.9231 c -6.5409,0.9205 -13.1801,2.1009 -19.6091,3.9172 -6.4291,1.8162 -12.6473,4.2692 -18.2971,7.8014 -3.562,2.2389 -6.8246,4.768 -9.0809,7.8577 -1.6504,2.2827 -2.8786,4.8155 -3.0802,7.2714 -0.006,0.0734 -0.0111,0.1467 -0.0153,0.2199 -0.25838,2.4141 0.4856,5.0683 1.7596,7.4377 1.6479,3.0927 4.4213,5.7647 7.5298,8.1824 4.2574,3.2568 9.1941,5.723 14.3151,7.8092 6.9005,2.7925 14.0831,4.7156 21.2529,6.1872 11.1881,2.2966 22.2179,3.4436 32.8495,3.9523 10.6315,0.5088 20.864,0.3805 30.507,-0.001 l 0,0 c 13.941,-0.5599 26.652,-1.7371 37.875,-3.0466 11.223,-1.3095 20.958,-2.7514 28.961,-3.9782 8.002,-1.2267 14.274,-2.2397 18.571,-2.8169 4.298,-0.5771 6.624,-0.719 6.72,-0.3117 0.097,0.4073 -2.042,1.3406 -6.182,2.6794 -4.14,1.3389 -10.282,3.0838 -18.21,5.0027 -7.928,1.9189 -17.644,4.0131 -28.931,5.9214 -11.287,1.9084 -24.147,3.6308 -38.344,4.6657 l 0,0 C 108.893,80.3948 98.4073,80.811 87.3998,80.52 76.3923,80.229 64.863,79.2294 53.0334,76.9942 45.4341,75.558 37.6627,73.5539 29.9952,70.5462 24.3107,68.3303 18.5948,65.4756 13.327,61.5475 9.42666,58.6785 5.73905,54.9878 3.05282,50.2796 0.879266,46.444 -0.282994,41.8971 0.0590863,37.1548 c 0.0137,-0.1402 0.0287,-0.2801 0.0448997,-0.4196 C 0.644936,32.0681 2.52725,27.8859 5.13222,24.5017 8.51176,20.0862 12.7059,16.739 17.0134,14.1634 23.7032,10.1462 30.7645,7.37883 37.8507,5.40408 44.9369,3.42933 52.0476,2.24634 58.897,1.45585 70.8814,0.0185758 82.4786,-0.235924 93.5002,0.181196 104.522,0.598316 114.968,1.6857 124.704,3.04878 c 13.856,1.93295 26.347,4.46602 37.277,7.08782 10.93,2.6219 20.3,5.3324 27.926,7.7557 7.627,2.4234 13.511,4.5608 17.464,6.1628 3.953,1.602 5.903,3.4753 5.851,3.0643 z"
       inkscape:connector-curvature="0"
       style="fill:#f0f0f0;fill-opacity:1" />
    <path
       id="path3926"
       transform="translate(2.1108,174.828)"
       d="M 9.82954,12.8643 0,14.7028 c 4.17619,21.7105 9.90703,43.3022 18.5059,63.8826 6.6898,16.0359 15.2734,31.5066 26.5673,44.9986 0,0 0,0 0,0 9.4624,11.293 20.9174,20.998 33.9301,28.066 0,0 1e-4,0 1e-4,0 12.4845,6.755 26.1646,10.989 40.0676,13.029 14.95,2.192 30.08,2.015 44.922,0.433 16.613,-1.765 32.944,-5.224 48.947,-9.56 0,0 0,0 0.001,0 36.919,-10.001 72.355,-24.384 107.262,-39.45 C 358.73,99.4809 396.687,81.7101 435.069,64.9781 473.14,48.384 511.618,32.636 551.303,20.5557 c 0,0 0,0 0,0 18.618,-5.6676 37.498,-10.5055 56.643,-13.96081 0,-1e-5 0,-1e-5 0,-1e-5 18.022,-3.25227 36.29,-5.28018 54.603,-5.40249 0,-1e-5 0,-1e-5 0,-1e-5 17.393,-0.11599 34.835,1.51275 51.788,5.45599 C 731.161,10.5612 747.47,16.7927 762.54,25.288 747.568,16.6213 731.305,10.1893 714.474,6.07207 697.515,1.92367 680.02,0.0842837 662.548,0.00290374 c 0,0 0,0 0,0 C 644.152,-0.0829963 625.773,1.74202 607.633,4.80388 c 0,10e-6 0,10e-6 0,10e-6 -19.27,3.25215 -38.288,7.89291 -57.04,13.36961 0,0 0,0 0,0 -39.967,11.6732 -78.755,27.0264 -117.066,43.2123 -38.634,16.3202 -76.799,33.6596 -115.413,49.7972 -35.01,14.626 -70.358,28.518 -106.873,37.945 0,0 0,0 0,0 -15.816,4.083 -31.83,7.293 -47.967,8.811 -14.412,1.351 -28.925,1.373 -43.037,-0.883 -13.088,-2.091 -25.8482,-6.185 -37.2957,-12.576 0,0 0,0 -1e-4,0 -11.9463,-6.641 -22.4784,-15.805 -31.1973,-26.429 0,0 0,0 0,0 C 41.2846,105.321 33.3447,90.5302 27.0595,75.0625 18.994,55.1816 13.6984,34.1665 9.82954,12.8643 Z"
       inkscape:connector-curvature="0"
       style="fill:#f0f0f0;fill-opacity:1" />
    <path
       id="path3930"
       transform="translate(191.893,186.071)"
       d="M 36.3839,3.08174 C 36.0041,-2.15039 26.2415,-0.0541196 26.4733,4.41572 27.5637,25.4512 28.8826,47.0001 23.7394,67.9719 l 0,0 c -2.3364,9.492 -5.4877,18.8127 -9.8648,27.596 l 0,0 C 10.285,102.753 5.94323,109.672 0,115.177 6.3823,110.188 11.4204,103.538 15.6534,96.5497 l 0,0 c 5.1876,-8.5457 9.2257,-17.803 12.422,-27.3155 l 0,0 C 35.1458,48.2528 38.4649,31.7483 36.3839,3.08174 Z"
       inkscape:connector-curvature="0"
       style="fill:#f0f0f0;fill-opacity:1" />
    <path
       id="path3934"
       transform="translate(81.3707,2.28169e-7)"
       d="m 31.8517,182.973 c -0.3185,0.424 -2.0916,-0.222 -5.0274,-1.985 -1.4679,-0.881 -3.2232,-2.047 -5.1959,-3.54 -1.9727,-1.493 -4.1636,-3.312 -6.4649,-5.534 -3.3354,-3.214 -6.93964,-7.312 -9.96241,-12.678 -2.09677,-3.729 -3.83131,-8.093 -4.676046,-13.018 0,0 0,0 0,0 -0.68817,-4.103 -0.71523,-8.484 0.01,-12.901 0.711596,-4.175 1.996586,-8.31 3.735646,-12.33 1.73905,-4.02 3.9318,-7.925 6.37631,-11.651 4.6655,-7.196 10.2387,-14.0438 15.9728,-20.8129 0.3165,-0.3737 0.6326,-0.7461 0.9479,-1.1173 6.1205,-7.2296 12.0349,-14.0122 16.9759,-20.8232 2.4389,-3.4 4.6757,-6.7617 6.5195,-10.1054 1.8438,-3.3437 3.2943,-6.6696 4.2445,-9.9884 0.9916,-3.3917 1.4821,-6.7586 1.4282,-9.9373 C 56.6905,32.838 55.9133,29.2829 54.7661,26.0937 53.1386,21.546 50.7425,17.6753 48.4515,14.4252 46.8652,12.1794 45.3079,10.2363 43.9087,8.55436 42.5094,6.87241 41.2673,5.45194 40.2669,4.27367 38.2661,1.91714 37.2476,0.514019 37.566,0.11554 c 0.3184,-0.39848 1.9504,0.229901 4.6273,1.94517 1.3384,0.85763 2.9344,1.99211 4.718,3.44845 1.7835,1.45633 3.7556,3.23421 5.8046,5.41014 2.9729,3.1526 6.1327,7.1872 8.6052,12.429 1.7427,3.7109 3.0482,8.0186 3.4522,12.7769 0.3302,4.0645 -0.007,8.3396 -1.0302,12.5879 -1.0018,4.0841 -2.5317,8.1158 -4.4722,12.0386 -1.9406,3.9228 -4.2913,7.7364 -6.851,11.4026 -5.1239,7.4168 -11.1468,14.5395 -17.2211,21.7127 -0.3136,0.3717 -0.6275,0.7435 -0.9416,1.1154 -5.6891,6.7376 -11.0827,13.1796 -15.5031,19.7176 -2.274,3.406 -4.3258,6.8 -5.9583,10.174 -1.6325,3.374 -2.84536,6.73 -3.52289,10.06 -0.7339,3.467 -0.91907,6.911 -0.57781,10.136 0,0 0,0 0,0 0.39262,3.882 1.5522,7.551 3.0322,10.84 2.1443,4.772 4.9908,8.781 7.6595,12.157 1.8474,2.332 3.6306,4.35 5.2246,6.099 1.5939,1.749 2.9995,3.227 4.1324,4.455 2.2659,2.457 3.4263,3.927 3.1079,4.352 z"
       inkscape:connector-curvature="0"
       style="fill:#f0f0f0;fill-opacity:1" />
    <text
       id="shape0"
       font-size="115.00000000000pt"
       x="0"
       y="90.546875"
       transform="matrix(1.695,0,0,1.59463,253.473,90.9395)"
       style="font-size:143.75px;font-family:GentiumAlt;fill:#f0f0f0;fill-opacity:1;">
      <tspan
         id="tspan12"
         style="fill:#f0f0f0;fill-opacity:1;">Pype</tspan>
    </text>
  </g>
</svg>
